<svg xmlns="http://www.w3.org/2000/svg" width="471" height="147" viewBox="0 0 471 147" fill="none"><path d="M121.361 26.6102C127.066 26.6102 131.691 21.9853 131.691 16.2802C131.691 10.5751 127.066 5.9502 121.361 5.9502C115.656 5.9502 111.031 10.5751 111.031 16.2802C111.031 21.9853 115.656 26.6102 121.361 26.6102Z" fill="#00A99D"></path><path d="M14.1117 123.35V145.82H7.90173V123.35H0.0117188V117.97H22.0017V123.35H14.1117Z" fill="#00A99D"></path><path d="M60.1698 117.97V123.51H46.3098V129.25H58.7798V134.55H46.3098V140.33H60.6098V145.83H40.0898V117.97H60.1698Z" fill="#00A99D"></path><path d="M92.4834 140.32C95.5334 140.32 98.0334 139.11 99.9734 136.69L103.953 140.79C100.793 144.35 97.0634 146.13 92.7834 146.13C88.4934 146.13 84.9634 144.78 82.1834 142.07C79.4034 139.36 78.0234 135.94 78.0234 131.81C78.0234 127.68 79.4334 124.23 82.2634 121.47C85.0934 118.71 88.5534 117.33 92.6434 117.33C97.2134 117.33 101.033 119.07 104.113 122.55L100.253 126.93C98.2834 124.49 95.8434 123.26 92.9234 123.26C90.5834 123.26 88.5834 124.02 86.9234 125.55C85.2634 127.08 84.4334 129.14 84.4334 131.73C84.4334 134.32 85.2134 136.4 86.7834 137.96C88.3534 139.54 90.2434 140.32 92.4834 140.32Z" fill="#00A99D"></path><path d="M139.692 117.97H145.912V145.82H139.692V134.86H128.612V145.82H122.402V117.97H128.612V129.6H139.692V117.97Z" fill="#00A99D"></path><path d="M185.781 117.97H192.001V145.82H185.781L172.511 128.37V145.82H166.301V117.97H172.121L185.791 135.9V117.97H185.781Z" fill="#00A99D"></path><path d="M235.821 141.98C233.001 144.73 229.541 146.1 225.421 146.1C221.301 146.1 217.841 144.73 215.021 141.98C212.201 139.23 210.801 135.81 210.801 131.72C210.801 127.63 212.211 124.21 215.021 121.46C217.831 118.71 221.301 117.34 225.421 117.34C229.541 117.34 233.001 118.71 235.821 121.46C238.641 124.21 240.041 127.63 240.041 131.72C240.041 135.81 238.631 139.23 235.821 141.98ZM233.711 131.74C233.711 129.26 232.911 127.14 231.321 125.39C229.731 123.64 227.771 122.76 225.441 122.76C223.121 122.76 221.161 123.64 219.561 125.39C217.971 127.14 217.171 129.26 217.171 131.74C217.171 134.22 217.971 136.34 219.561 138.07C221.151 139.81 223.111 140.68 225.441 140.68C227.761 140.68 229.721 139.81 231.321 138.07C232.911 136.33 233.711 134.22 233.711 131.74Z" fill="#00A99D"></path><path d="M258.84 145.82V117.97H265.05V140.28H276.92V145.82H258.84V145.82Z" fill="#00A99D"></path><path d="M317.692 141.98C314.872 144.73 311.412 146.1 307.292 146.1C303.172 146.1 299.712 144.73 296.892 141.98C294.072 139.23 292.672 135.81 292.672 131.72C292.672 127.63 294.082 124.21 296.892 121.46C299.702 118.71 303.172 117.34 307.292 117.34C311.412 117.34 314.872 118.71 317.692 121.46C320.512 124.21 321.912 127.63 321.912 131.72C321.912 135.81 320.502 139.23 317.692 141.98ZM315.582 131.74C315.582 129.26 314.782 127.14 313.192 125.39C311.602 123.64 309.642 122.76 307.312 122.76C304.992 122.76 303.032 123.64 301.432 125.39C299.842 127.14 299.042 129.26 299.042 131.74C299.042 134.22 299.842 136.34 301.432 138.07C303.022 139.81 304.982 140.68 307.312 140.68C309.632 140.68 311.592 139.81 313.192 138.07C314.782 136.33 315.582 134.22 315.582 131.74Z" fill="#00A99D"></path><path d="M358.801 131.64H365.051V141.52C362.291 144.6 358.461 146.14 353.581 146.14C349.491 146.14 346.061 144.79 343.281 142.08C340.501 139.37 339.121 135.95 339.121 131.82C339.121 127.69 340.531 124.24 343.361 121.48C346.191 118.72 349.601 117.34 353.601 117.34C357.601 117.34 361.071 118.66 364.021 121.28L360.791 125.94C359.541 124.85 358.391 124.1 357.341 123.69C356.291 123.28 355.161 123.07 353.931 123.07C351.571 123.07 349.571 123.87 347.951 125.48C346.331 127.09 345.521 129.2 345.521 131.83C345.521 134.46 346.301 136.57 347.851 138.14C349.401 139.72 351.261 140.51 353.411 140.51C355.561 140.51 357.351 140.1 358.791 139.28V131.64H358.801Z" fill="#00A99D"></path><path d="M384.141 117.97H390.351V145.82H384.141V117.97Z" fill="#00A99D"></path><path d="M430.83 117.97V123.51H416.97V129.25H429.44V134.55H416.97V140.33H431.27V145.83H410.75V117.97H430.83Z" fill="#00A99D"></path><path d="M456.871 123.53C456.271 124.02 455.971 124.67 455.971 125.48C455.971 126.29 456.331 126.93 457.071 127.41C457.801 127.89 459.491 128.45 462.131 129.1C464.771 129.75 466.821 130.73 468.291 132.03C469.751 133.33 470.481 135.23 470.481 137.73C470.481 140.23 469.541 142.25 467.671 143.81C465.801 145.36 463.331 146.14 460.281 146.14C455.871 146.14 451.901 144.51 448.371 141.24L452.081 136.7C455.081 139.33 457.861 140.64 460.411 140.64C461.551 140.64 462.451 140.4 463.101 139.9C463.751 139.41 464.081 138.74 464.081 137.91C464.081 137.08 463.731 136.41 463.041 135.92C462.351 135.43 460.981 134.93 458.941 134.43C455.701 133.66 453.331 132.66 451.831 131.42C450.331 130.19 449.581 128.25 449.581 125.6C449.581 122.96 450.531 120.92 452.431 119.48C454.331 118.05 456.701 117.33 459.541 117.33C461.401 117.33 463.261 117.65 465.121 118.29C466.981 118.93 468.601 119.83 469.981 121L466.831 125.54C464.411 123.71 461.921 122.79 459.341 122.79C458.281 122.79 457.461 123.04 456.871 123.53Z" fill="#00A99D"></path><path d="M17.83 102.53H0L32.5 20.2601C34.24 15.8701 36.68 12.7901 39.84 11.0001C42.99 9.22006 47.04 8.33008 51.98 8.33008C56.82 8.33008 60.82 9.22006 63.98 11.0001C67.13 12.7801 69.53 15.8701 71.18 20.2601L102.44 102.53H84.48L56.37 28.0701C55.55 25.9701 54.04 24.9201 51.85 24.9201C49.66 24.9201 48.1 25.9701 47.19 28.0701L17.83 102.53Z" fill="#212F61"></path><path d="M241.211 8.33008V102.53H225.031V8.33008H241.211V8.33008Z" fill="#212F61"></path><path d="M285.219 8.33008V46.7101H332.529V8.33008H348.849V102.53H332.529V63.1701H285.219V102.53H269.039V8.33008H285.219V8.33008Z" fill="#212F61"></path><path d="M385.869 102.53H368.039L400.539 20.2601C402.279 15.8701 404.719 12.7901 407.879 11.0001C411.029 9.22006 415.079 8.33008 420.019 8.33008C424.859 8.33008 428.859 9.22006 432.019 11.0001C435.169 12.7801 437.569 15.8701 439.219 20.2601L470.479 102.53H452.519L424.409 28.0701C423.589 25.9701 422.079 24.9201 419.879 24.9201C417.689 24.9201 416.129 25.9701 415.219 28.0701L385.869 102.53Z" fill="#212F61"></path><path d="M30.0508 102.53L47.3208 55.01C48.7008 51.31 53.9108 51.25 55.3808 54.91L73.4108 102.53H30.0508Z" fill="#00A99D"></path><path d="M397.578 102.53L414.848 55.01C416.228 51.31 421.438 51.25 422.908 54.91L440.938 102.53H397.578Z" fill="#00A99D"></path><path d="M181.698 64.8501C185.268 63.8301 188.278 62.3401 190.748 60.3801C193.218 58.4301 195.228 56.1701 196.778 53.6101C198.328 51.0501 199.468 48.3101 200.208 45.3801C200.938 42.4501 201.308 39.5001 201.308 36.5201C201.308 32.8001 200.738 29.2201 199.598 25.7701C198.458 22.3301 196.668 19.3301 194.248 16.7701C191.828 14.2101 188.738 12.1601 184.988 10.6301C181.238 9.09007 176.758 8.33008 171.548 8.33008H135.558C136.878 10.6801 137.638 13.3901 137.638 16.2801C137.638 19.4101 136.738 22.3201 135.208 24.8001H172.088C176.568 24.8001 179.838 26.0301 181.888 28.5001C183.948 30.9701 184.978 33.8701 184.978 37.2201C184.978 38.8901 184.728 40.5201 184.228 42.1001C183.728 43.6801 182.968 45.0801 181.968 46.2901C180.958 47.5001 179.638 48.4801 177.988 49.2201C176.338 49.9701 174.378 50.3401 172.088 50.3401H136.028C130.908 50.3401 127.208 51.5001 124.918 53.8301C122.628 56.1601 121.488 59.9701 121.488 65.2701V102.53H137.668V68.4801C137.668 66.9001 138.448 66.1101 139.998 66.1101H164.128L185.248 102.54H203.208L181.698 64.8501Z" fill="#212F61"></path><path d="M121.358 0C112.368 0 105.078 7.29 105.078 16.28C105.078 25.27 112.368 32.56 121.358 32.56C130.348 32.56 137.638 25.27 137.638 16.28C137.638 7.29 130.348 0 121.358 0ZM121.358 24.23C116.968 24.23 113.408 20.67 113.408 16.28C113.408 11.89 116.968 8.33002 121.358 8.33002C125.748 8.33002 129.308 11.89 129.308 16.28C129.308 20.67 125.748 24.23 121.358 24.23Z" fill="#212F61"></path></svg>