<svg xmlns="http://www.w3.org/2000/svg" width="1440" height="975" viewBox="0 0 1440 975" fill="none"><rect width="1440" height="975" fill="url(#paint0_radial)"></rect><circle cx="637" cy="691" r="10" stroke="#003547" stroke-width="4"></circle><circle cx="448" cy="894" r="10" stroke="#003547" stroke-width="4"></circle><circle cx="101" cy="812" r="12" fill="#151352"></circle><circle cx="100.5" cy="913.5" r="7.5" fill="#001D3C"></circle><circle cx="278.5" cy="893.5" r="7.5" fill="#001D3C"></circle><circle cx="496.5" cy="632.5" r="7.5" fill="#02264B"></circle><circle cx="317.5" cy="543.5" r="4.5" fill="#001D3C"></circle><circle cx="629.5" cy="657.5" r="4.5" fill="#001D3C"></circle><circle cx="954.5" cy="626.5" r="4.5" fill="#001D3C"></circle><circle cx="1154.5" cy="646.5" r="4.5" fill="#001D3C"></circle><circle cx="1074.5" cy="723.5" r="4.5" fill="#001D3C"></circle><circle cx="1323.5" cy="525.5" r="4.5" fill="#001D3C"></circle><circle cx="894.5" cy="482.5" r="4.5" fill="#001D3C"></circle><circle cx="1120" cy="332" r="10" fill="#001D3C"></circle><circle cx="1208" cy="731" r="10" fill="#001D3C"></circle><circle cx="830" cy="594" r="10" fill="#001D3C"></circle><circle cx="866" cy="927" r="10" fill="#001D3C"></circle><circle cx="1269" cy="301" r="8" fill="#001D3C"></circle><circle cx="1062" cy="856" r="8" fill="#001D3C"></circle><circle cx="1374" cy="59" r="8" fill="#001D3C"></circle><circle cx="945.5" cy="317.5" r="4.5" fill="#001D3C"></circle><circle cx="1160.5" cy="298.5" r="4.5" fill="#001D3C"></circle><circle cx="1169.5" cy="208.5" r="4.5" fill="#001D3C"></circle><circle cx="1085.5" cy="248.5" r="4.5" fill="#001D3C"></circle><circle cx="871.5" cy="695.5" r="4.5" fill="#001D3C"></circle><circle cx="298.5" cy="557.5" r="2.5" fill="#001D3C"></circle><circle cx="527.5" cy="622.5" r="2.5" fill="#001D3C"></circle><circle cx="404.5" cy="581.5" r="2.5" fill="#001D3C"></circle><circle cx="582.5" cy="509.5" r="2.5" fill="#001D3C"></circle><circle cx="727.5" cy="561.5" r="2.5" fill="#001D3C"></circle><circle cx="924.5" cy="598.5" r="2.5" fill="#001D3C"></circle><circle cx="999.5" cy="459.5" r="2.5" fill="#001D3C"></circle><circle cx="1053.5" cy="348.5" r="2.5" fill="#001D3C"></circle><circle cx="504.5" cy="302.5" r="2.5" fill="#001D3C"></circle><circle cx="501.5" cy="461.5" r="2.5" fill="#001D3C"></circle><circle cx="351.5" cy="368.5" r="2.5" fill="#001D3C"></circle><circle cx="249.5" cy="99.5" r="4.5" fill="#001D3C"></circle><circle cx="249" cy="207" r="4" fill="#001D3C"></circle><circle cx="60" cy="459" r="2" fill="#001D3C"></circle><circle cx="240" cy="218" r="4" fill="#32362F"></circle><circle cx="75" cy="398" r="4" fill="#32362F"></circle><circle cx="751" cy="466" r="4" fill="#32362F"></circle><circle cx="1311" cy="825" r="4" fill="#32362F"></circle><circle cx="1315" cy="380" r="4" fill="#32362F"></circle><circle cx="1037" cy="194" r="4" fill="#32362F"></circle><circle cx="314" cy="734" r="4" fill="#32362F"></circle><circle cx="820" cy="553" r="4" fill="#32362F"></circle><circle cx="955" cy="731" r="4" fill="#32362F"></circle><circle cx="232" cy="798" r="4" fill="#001D3C"></circle><circle cx="1326.5" cy="219.5" r="12.5" fill="#3C1F3F" stroke="#151352" stroke-width="6"></circle><circle cx="105" cy="603" r="8.5" fill="#3C1F3F" stroke="#151352" stroke-width="5"></circle><circle cx="437" cy="779" r="8.5" fill="#3C1F3F" stroke="#151352" stroke-width="5"></circle><circle cx="623" cy="937" r="8.5" fill="#3C1F3F" stroke="#151352" stroke-width="5"></circle><circle cx="1097" cy="603" r="8.5" fill="#3C1F3F" stroke="#151352" stroke-width="5"></circle><circle cx="978" cy="95" r="8.5" fill="#3C1F3F" stroke="#151352" stroke-width="5"></circle><circle cx="195" cy="322" r="12" fill="#151352"></circle><circle cx="1329.5" cy="672.5" r="10.5" fill="#151352"></circle><circle cx="1044" cy="770" r="10" stroke="#003547" stroke-width="4"></circle><circle cx="941" cy="261" r="10" stroke="#003547" stroke-width="4"></circle><circle cx="513" cy="224" r="10" stroke="#003547" stroke-width="4"></circle><circle cx="412" cy="85" r="6" fill="#074557"></circle><circle cx="1116" cy="89" r="6" fill="#074557"></circle><circle cx="245" cy="709" r="6" fill="#074557"></circle><circle cx="238.5" cy="435.5" r="3.5" fill="#074557"></circle><circle cx="1188" cy="885" r="6" fill="#074557"></circle><circle cx="1261" cy="125" r="10" stroke="#003547" stroke-width="4"></circle><circle cx="120" cy="152" r="10" stroke="#003547" stroke-width="4"></circle><circle cx="1261.5" cy="29.5" r="3.5" fill="#003547"></circle><defs><radialGradient id="paint0_radial" cx="0" cy="0" r="1" gradientUnits="userSpaceOnUse" gradientTransform="translate(720 487.5) rotate(90) scale(487.5 720)"><stop stop-color="#001C39"></stop><stop offset="1" stop-color="#001934"></stop></radialGradient></defs></svg>