<svg width="48" height="48" viewBox="0 0 48 48" fill="none" xmlns="http://www.w3.org/2000/svg">
<path d="M24 44C23.1 44 22.3083 43.7833 21.625 43.35C20.9417 42.9167 20.5 42.3167 20.3 41.55H19.6C18.8 41.55 18.1 41.25 17.5 40.65C16.9 40.05 16.6 39.35 16.6 38.55V31.4C14.4 29.9667 12.6667 28.1333 11.4 25.9C10.1333 23.6667 9.5 21.2 9.5 18.5C9.5 14.4667 10.9083 11.0417 13.725 8.225C16.5417 5.40833 19.9667 4 24 4C28.0333 4 31.4583 5.40833 34.275 8.225C37.0917 11.0417 38.5 14.4667 38.5 18.5C38.5 21.2 37.8667 23.6667 36.6 25.9C35.3333 28.1333 33.6 29.9667 31.4 31.4V38.55C31.4 39.35 31.1 40.05 30.5 40.65C29.9 41.25 29.2 41.55 28.4 41.55H27.7C27.5 42.3167 27.0583 42.9167 26.375 43.35C25.6917 43.7833 24.9 44 24 44ZM19.6 38.55H28.4V36.35H19.6V38.55ZM19.6 34.35H28.4V32.35H19.6V34.35ZM25.15 29.35V22.5L29.75 17.9L28.2 16.35L24 20.55L19.8 16.35L18.25 17.9L22.85 22.5V29.35H25.15Z" fill="#1CD3C6"/>
</svg>
