<svg xmlns="http://www.w3.org/2000/svg" width="1536" height="588" viewBox="0 0 1536 588" fill="none"><g clip-path="url(#clip0)"><path d="M1536 0H0V588H1536V0Z" fill="white"></path><path d="M1099.5 360L1097 362.5M1101 361.5L1098.5 364" stroke="#3662C1" stroke-linecap="round"></path><path d="M976.5 454L974 456.5M978 455.5L975.5 458" stroke="#F99E5A" stroke-linecap="round"></path><path d="M922.108 450.195L918.717 451.196M922.709 452.229L919.318 453.23" stroke="#F99E5A" stroke-linecap="round"></path><path d="M1197.5 327L1195 329.5M1199 328.5L1196.5 331" stroke="#3662C1" stroke-linecap="round"></path><path d="M1250.65 329.449L1252.41 332.511M1252.48 328.388L1254.25 331.45" stroke="#ED6966" stroke-linecap="round"></path><path d="M1301.75 328.299L1305.17 329.214M1302.3 326.25L1305.71 327.165" stroke="#ED6966" stroke-linecap="round"></path><path d="M1419 44H1669" stroke="#48B1FF" stroke-opacity="0.17" stroke-width="6" stroke-linecap="round" stroke-dasharray="1 20"></path><path d="M1419 84H1669" stroke="#48B1FF" stroke-opacity="0.17" stroke-width="6" stroke-linecap="round" stroke-dasharray="1 20"></path><path d="M1419 124H1669" stroke="#48B1FF" stroke-opacity="0.17" stroke-width="6" stroke-linecap="round" stroke-dasharray="1 20"></path><circle cx="844" cy="186" r="8" stroke="#48B1FF" stroke-opacity="0.17" stroke-width="4" stroke-linecap="round" stroke-linejoin="round"></circle><path d="M746.863 488.154C746.863 488.154 667.584 319.328 823.834 319.328C906.39 319.328 872.38 273.009 928.509 219.4C984.636 165.791 1180.92 122.966 1222.71 226.48C1264.48 329.996 1161.23 408.591 1261 395.11C1380.89 378.912 1428.25 488.154 1428.25 488.154H746.863Z" fill="#A8D2A0" fill-opacity="0.2"></path><path d="M1388.94 466.733C1381.54 461.327 1366.43 464.977 1355.27 468.879C1353.45 466.323 1351.4 463.941 1349.14 461.763C1373.18 446.28 1406.36 413.263 1388.76 410.466C1373.47 408.037 1352.82 437.759 1341.8 455.851C1330.34 448.146 1312.78 442.48 1285.98 444.444C1216.43 449.543 1162.1 404.678 1122.04 419.641C1090.2 431.541 1061.01 438.205 1032.87 435.929C1034.08 415.366 1034.34 374.996 1018.2 370.809C1001.81 366.556 1017.89 412.405 1026.82 435.295C1024.72 435.029 1022.63 434.709 1020.54 434.335C1014.75 422.927 1005.21 407.996 994.751 407.485C984.891 407.004 997.065 420.428 1009.04 431.801C974.616 424.57 933.787 452.552 933.11 485.636H1362.84C1362.84 485.636 1362.08 480.804 1358.7 474.438C1375.31 474.115 1396.98 472.605 1388.94 466.733Z" fill="#A7D29F"></path><path d="M1026.85 460.066H913.601V485.64H1026.85V460.066Z" fill="#6D89CF"></path><path d="M991.938 460.066H878.682V485.64H991.938V460.066Z" fill="#3662C1"></path><path d="M1071.41 485.637H1155.74V367.762H1071.41V485.637Z" fill="#AF4E4E"></path><path d="M1045.41 485.637H1129.74V367.762H1045.41V485.637Z" fill="#E75755"></path><path d="M1129.74 367.762L1155.74 385.461V367.762H1129.74Z" fill="#A83F3F"></path><path d="M869.416 393.869C869.416 393.869 853.644 405.598 850.569 404.886C847.495 404.175 862.096 392.227 862.096 392.227C856.6 389.585 839.535 391.243 839.535 391.243C839.535 391.243 833.848 409.586 831.04 408.14C828.231 406.694 836.909 392.153 836.909 392.153C830.788 391.783 823.282 396.328 823.282 396.328C813.009 404.444 823.959 417.217 823.959 417.217C823.959 417.217 821.847 423.534 815.36 429.284C815.36 429.284 806.104 436.14 805.45 448.374L807.131 448.524C807.131 448.524 809.798 437.119 814.651 431.725C814.839 431.532 815.113 431.25 815.453 430.909C816.242 430.178 816.795 429.628 817.164 429.221C819.577 426.907 822.912 423.953 824.517 423.667C824.458 423.402 824.435 423.131 824.447 422.86C824.468 423.118 824.491 423.384 824.517 423.667C825.067 430.122 837.593 435.763 845.299 436.923C853.004 438.083 850.621 434.899 847.966 430.216C845.311 425.533 836.909 423.418 834.99 421.249C833.073 419.079 837.039 419.082 841.681 421.203C846.323 423.323 846.959 428.978 854.408 432.544C861.856 436.111 873.064 423.751 873.064 423.751C867.128 423.462 858.651 417.002 858.957 415.03C859.264 413.057 873.348 418.435 875.754 418.692C878.161 418.949 883.638 415.956 884.486 406.254C885.334 396.553 869.416 393.869 869.416 393.869Z" fill="#82B479"></path><path d="M785.657 401.141C785.657 401.141 803.074 391.385 794.947 378.146C794.947 378.146 788.442 370.019 781.477 367.927C781.477 367.927 785.19 387.671 781.477 388.134C777.763 388.597 778.92 365.853 778.92 365.853C778.92 365.853 760.574 357.026 753.372 357.723C753.372 357.723 764.753 377.001 761.036 376.523C757.319 376.046 744.549 356.552 744.549 356.552C744.549 356.552 725.748 353.081 722.717 364.216C719.686 375.352 724.577 380.937 727.363 381.635C730.148 382.331 748.035 382.1 747.569 384.423C747.103 386.745 735.027 390.459 728.29 388.371C728.29 388.371 735.725 406.718 745.478 405.789C755.231 404.86 758.254 398.821 764.279 398.356C770.304 397.89 774.729 399.513 771.709 401.144C768.689 402.776 758.471 401.677 753.594 405.824C748.718 409.972 744.769 412.526 753.825 414.382C762.882 416.24 779.143 415.08 782.394 408.112L785.657 401.141Z" fill="#A9D19F"></path><path d="M790.303 418.108C785.43 409.049 785.658 401.141 785.658 401.141C780.085 383.497 731.31 367.696 731.31 367.696C793.323 392.779 782.408 408.109 782.408 408.109C784.076 409.084 786.584 413.732 788.323 417.298C788.571 417.905 788.961 418.744 789.546 419.884C789.78 420.401 789.971 420.821 790.101 421.116C793.283 429.105 791.602 442.902 791.602 442.902L793.537 443.423C797.824 429.53 790.303 418.108 790.303 418.108Z" fill="#82B479"></path><path d="M813.371 387.7C813.371 387.7 790.408 374.84 801.125 357.391C801.125 357.391 809.698 346.689 818.882 343.92C818.882 343.92 813.985 369.952 818.882 370.554C823.778 371.155 822.248 341.164 822.248 341.164C822.248 341.164 846.435 329.53 855.928 330.447C855.928 330.447 840.925 355.86 845.825 355.247C850.724 354.634 867.561 328.926 867.561 328.926C867.561 328.926 892.358 324.333 896.338 339.029C900.318 353.725 893.891 361.073 890.218 361.992C886.544 362.912 862.968 362.603 863.582 365.666C864.194 368.729 880.115 373.625 888.991 370.872C888.991 370.872 879.195 395.058 866.335 393.835C853.475 392.611 849.498 384.649 841.538 384.038C833.578 383.429 827.762 385.568 831.741 387.712C835.721 389.855 849.192 388.415 855.621 393.878C862.052 399.342 867.255 402.712 855.315 405.159C843.375 407.606 821.945 406.079 817.658 396.892L813.371 387.7Z" fill="#A8D2A0"></path><path d="M885.01 343.613C885.01 343.613 820.716 364.438 813.37 387.7C813.37 387.7 813.676 398.113 807.247 410.05C807.247 410.05 797.332 425.091 802.983 443.434L805.535 442.749C805.535 442.749 803.305 424.564 807.513 414.032C807.686 413.645 807.936 413.086 808.245 412.407C809.015 410.906 809.532 409.804 809.858 408.997C812.149 404.296 815.453 398.168 817.668 396.883C817.657 396.883 803.267 376.677 885.01 343.613Z" fill="#82B479"></path><path d="M812.594 483.18C824.524 483.18 835.965 478.441 844.4 470.005C852.836 461.57 857.575 450.129 857.575 438.199H767.62C767.62 450.128 772.358 461.568 780.792 470.003C789.226 478.438 800.666 483.178 812.594 483.18Z" fill="#EF7674"></path><path d="M823.663 482.836C817.335 483.622 810.912 483.056 804.818 481.173C798.725 479.291 793.102 476.134 788.321 471.913C783.539 467.693 779.71 462.504 777.086 456.693C774.461 450.881 773.102 444.576 773.098 438.199H784.271C784.272 449.161 788.275 459.745 795.529 467.964C802.782 476.184 812.787 481.472 823.663 482.836Z" fill="#FC9796"></path><path d="M852.646 480.084H772.546C771.075 480.084 769.662 480.669 768.621 481.71C767.581 482.751 766.996 484.163 766.996 485.635H858.194C858.195 484.907 858.051 484.184 857.773 483.511C857.494 482.838 857.085 482.225 856.571 481.71C856.055 481.194 855.444 480.786 854.77 480.507C854.097 480.228 853.375 480.084 852.646 480.084Z" fill="#EF7674"></path><path d="M857.907 438.199H766.827C766.652 438.211 766.488 438.288 766.368 438.416C766.248 438.544 766.181 438.713 766.181 438.889C766.181 439.065 766.248 439.234 766.368 439.362C766.488 439.49 766.652 439.567 766.827 439.579H857.907C858.082 439.567 858.247 439.49 858.368 439.362C858.488 439.234 858.554 439.065 858.554 438.889C858.554 438.713 858.488 438.544 858.368 438.416C858.247 438.288 858.082 438.211 857.907 438.199Z" fill="#AF4E4E"></path><path d="M1204.99 201.349C1203.68 201.149 1199.75 204.783 1199.75 204.783C1191.36 205.751 1179.1 207.964 1174.69 208.832C1171.56 209.433 1163.14 206.564 1154.91 203.269C1145.14 199.35 1135.64 194.827 1135.64 194.827C1130.21 194.538 1124.05 204.45 1135.06 210.736C1136.74 211.698 1143.04 213.338 1150.32 214.834C1160.34 216.899 1172.19 218.692 1176.21 218.062C1180.91 217.33 1194.15 212.479 1202.04 208.765H1202.06L1202.15 208.725C1202.62 208.502 1204.56 207.643 1205.85 207.718C1207.32 207.808 1210.61 205.115 1210.71 204.383C1210.81 203.652 1206.28 201.546 1204.99 201.349Z" fill="#EA8888"></path><path d="M1194.75 326.056L1190.11 326.995C1190.11 326.995 1168.98 303.245 1165.73 293.253C1163.99 287.913 1152.82 285.605 1141.16 282.591C1131.01 279.968 1120.48 276.806 1115.45 270.634C1104.64 257.381 1122.23 241.093 1122.23 241.093C1122.23 241.093 1140.95 252.214 1157.09 263.703C1168.37 271.733 1178.41 279.942 1179.91 284.659C1183.59 296.145 1191.37 317.94 1194.75 326.056Z" fill="#0B0754"></path><path d="M1188.56 333.892H1191.16C1192.04 333.756 1192.68 333.504 1193.57 333.385C1194.93 333.209 1195.55 333.765 1195.67 333.892L1195.7 333.918H1206.73C1207.02 333.522 1206.73 332.602 1206.49 331.928C1206.4 331.701 1206.26 331.498 1206.08 331.334C1205.9 331.17 1205.69 331.049 1205.45 330.982C1204.3 330.644 1201.98 330.343 1199.86 328.428C1198.67 327.355 1194.12 324.48 1194.12 324.48H1194.1C1194 324.48 1193.52 324.628 1191.44 326.377C1190.37 327.277 1188.55 325.101 1188.55 325.101C1188.3 325.331 1188.1 325.607 1187.95 325.915C1187.7 326.439 1187.61 327.032 1187.72 327.606C1187.88 328.601 1187.35 330.45 1186.93 331.7C1186.67 332.458 1186.45 332.995 1186.45 332.995C1186.45 332.995 1186.32 333.612 1188.56 333.892Z" fill="#060632"></path><path d="M1157.1 263.703L1141.17 282.591C1131.02 279.968 1120.49 276.806 1115.47 270.634C1104.66 257.381 1122.25 241.093 1122.25 241.093C1122.25 241.093 1140.95 252.214 1157.1 263.703Z" fill="#060632"></path><path d="M1142.61 253.838C1142.61 253.838 1141.33 257.887 1139.24 263.984C1136.6 271.69 1132.65 282.661 1128.39 292.837C1127.45 295.073 1126.49 297.27 1125.53 299.388C1121.97 307.218 1118.34 313.929 1115.14 317.338C1109.38 323.471 1095.4 362.894 1095.4 362.894L1091.91 361.928C1091.91 361.928 1087.06 328.266 1104.27 309.112C1104.46 308.919 1104.58 308.668 1104.61 308.398C1104.84 305.563 1105.66 292.866 1107.44 280C1107.88 276.841 1108.38 273.677 1108.93 270.646C1108.96 270.452 1109 270.258 1109.04 270.067C1111.67 256.045 1114.17 249.82 1117.41 246.673L1141.2 253.438L1142.61 253.838Z" fill="#0B0754"></path><path d="M1091.52 367.733H1094.12C1094.99 367.597 1095.63 367.346 1096.53 367.23C1097.88 367.051 1098.51 367.606 1098.64 367.733L1098.67 367.759H1109.69C1109.98 367.363 1109.69 366.446 1109.44 365.77C1109.35 365.542 1109.22 365.339 1109.04 365.175C1108.86 365.012 1108.64 364.892 1108.41 364.827C1107.25 364.485 1104.94 364.184 1102.82 362.273C1101.64 361.2 1097.08 358.321 1097.08 358.321H1097.05C1096.95 358.321 1096.48 358.469 1094.41 360.219C1093.34 361.122 1091.52 358.943 1091.52 358.943C1091.27 359.173 1091.07 359.449 1090.92 359.756C1090.67 360.282 1090.58 360.875 1090.69 361.451C1090.85 362.443 1090.32 364.291 1089.9 365.543C1089.64 366.299 1089.42 366.836 1089.42 366.836C1089.42 366.836 1089.29 367.456 1091.52 367.733Z" fill="#060632"></path><path d="M1096.62 208.059C1096.62 208.059 1092.64 217.802 1088.06 227.283C1084.19 235.254 1079.9 243.041 1077.18 244.704C1073.34 247.046 1062.77 253.671 1055.92 258.587C1055.92 258.587 1050.57 258.547 1049.74 259.571C1048.91 260.595 1046.99 265.197 1047.55 265.662C1048.11 266.128 1052.37 265.911 1053.4 264.852C1054.3 263.927 1056.29 263.265 1056.8 263.117L1056.9 263.091H1056.92C1065.25 260.529 1078.32 255.189 1082.27 252.58C1085.67 250.33 1093.22 241.03 1099.25 232.752C1103.62 226.753 1107.18 221.29 1107.77 219.447C1111.68 207.374 1100.46 204.201 1096.62 208.059Z" fill="#FC9290"></path><path d="M1117.45 169.859C1117.01 169.216 1116.54 168.599 1116.04 168.01C1116.63 168.04 1117.23 167.949 1117.79 167.744C1119.19 167.166 1119.81 162.729 1119.61 161.413C1119.41 160.097 1117.47 156.292 1115.07 155.917C1112.68 155.541 1110.2 158.199 1110.2 158.199C1110.65 156.278 1114.7 155.171 1114.7 155.171C1106.35 156.71 1106.77 162.274 1106.83 162.789C1099.2 160.068 1094.71 174.452 1094.71 174.452L1114.5 186.111C1114.5 186.111 1114.55 182.929 1116.44 183.138C1119.37 183.458 1121.82 176.227 1117.45 169.859Z" fill="#0B0754"></path><path d="M1118.71 200.039C1114.17 202.178 1108.14 199.096 1108.18 199.064C1108.57 198.676 1108.43 197.51 1108.07 195.986C1107.72 194.395 1106.88 192.226 1105.32 189.623C1105 189.07 1104.67 188.518 1104.28 187.933L1104.8 187.74L1113.62 184.208C1113.62 184.208 1115.05 186.77 1116.54 189.105C1117.8 191.052 1119.14 192.801 1119.72 192.737C1119.75 192.711 1125.58 196.733 1118.71 200.039Z" fill="#FC9290"></path><path d="M1113.62 185.09C1113.4 188.235 1112.33 193.909 1108.07 195.986C1107.72 194.395 1106.88 192.226 1105.32 189.623L1113.62 185.09Z" fill="#EA8888"></path><path d="M1104.8 193.21C1104.8 193.21 1116.29 188.683 1113.36 181.576C1110.43 174.47 1109.94 169.099 1102.49 171.687C1095.03 174.276 1094.73 177.574 1095.13 180.182C1095.53 182.791 1101.74 194.205 1104.8 193.21Z" fill="#FC9290"></path><path d="M1109.09 179.957C1114.4 179.207 1115.94 177.064 1115.94 177.064C1112.72 175.964 1109.98 173.778 1108.19 170.88C1108.19 170.88 1102.23 168.872 1097.81 172.231C1097.53 172.596 1097.34 173.024 1097.25 173.477C1096.24 173.145 1094.72 173.231 1093.84 176.08C1092.53 180.379 1097.22 185.07 1097.22 185.07C1098.36 184.749 1097.07 180.919 1096.89 178.875C1096.76 177.37 1097.57 175.444 1098 174.536C1098.58 175.265 1104.17 182.297 1111 182.577C1108.54 181.662 1106.22 180.416 1104.1 178.875C1105.73 179.684 1107.46 180.185 1109.09 179.957Z" fill="#0B0754"></path><path d="M1140.57 214.683C1140.48 214.339 1140.37 213.982 1140.26 213.618C1141.71 210.912 1142.69 207.977 1143.15 204.941C1143.93 199.688 1142.6 196.446 1142.6 196.446C1142.6 196.446 1134.64 192.22 1131.12 191.683H1131.08H1130.93C1127.39 191.193 1119.7 192.763 1119.7 192.763C1119.7 192.763 1121.18 196.709 1117 199.341C1112.82 201.973 1108.35 198.667 1108.35 198.667C1108.21 198.757 1108.06 198.859 1107.92 198.957C1107.92 198.957 1096.93 206.217 1095.93 207.877C1094.93 209.538 1090.73 217.752 1090.73 217.752C1090.73 217.752 1092.07 224.65 1106.92 225.226C1108.14 228.173 1109.09 231.066 1109.38 233.466C1110.57 242.832 1109.19 250.216 1110.57 255.684C1111.95 261.15 1136.75 258.032 1141.24 256.979C1145.73 255.926 1144.71 251.131 1145.07 246.471C1145.51 240.611 1142.03 219.848 1140.57 214.683Z" fill="#3662C1"></path><path d="M1143.16 204.936C1142.69 207.988 1141.71 210.938 1140.24 213.656C1139.85 211.937 1138.26 205.647 1135.71 202.795C1135.71 202.795 1140.02 203.182 1143.16 204.936Z" fill="#3E4DCE"></path><path d="M1042.16 266.298C1042.16 266.298 1046.79 260.698 1047.77 260.036C1048.76 259.373 1053.14 258.213 1053.39 258.448C1053.64 258.683 1053.65 259.027 1053.1 259.498C1052.55 259.97 1050.49 261.179 1050.78 261.315C1051.07 261.45 1057.3 258.349 1058.2 259.394C1059.1 260.438 1057.69 264.742 1055.3 266.804C1052.9 268.866 1045.73 269.749 1045.28 270.035C1041.47 272.479 1042.16 266.298 1042.16 266.298Z" fill="#EA8888"></path><path d="M960.792 253.366C960.792 253.366 967.445 261.242 975.888 257.947C975.888 257.947 977.707 253.548 977.733 250.306C977.733 249.906 977.733 249.522 977.733 249.149C977.779 245.499 977.903 243.451 977.903 243.451C977.519 243.289 964.977 238.142 964.99 238.568C965.206 248.446 960.792 253.366 960.792 253.366Z" fill="#FC9290"></path><path d="M966.25 240.926C967.459 243.165 971.61 247.552 977.745 249.152C977.791 245.502 977.915 243.454 977.915 243.454C977.56 243.358 965.891 240.263 966.25 240.926Z" fill="#EA8888"></path><path d="M980.541 243.072C980.541 243.072 966.437 246.389 964.508 237.576C962.579 228.763 959.458 223.256 968.382 220.766C977.304 218.275 979.795 221.254 981.154 224.039C982.514 226.825 984.16 241.985 980.541 243.072Z" fill="#FC9290"></path><path d="M964.991 239.977C964.798 240.098 961.763 241.03 956.025 229.582C955.123 227.786 954.509 223.899 956.603 220.462C958.698 217.026 966.148 214.328 972.355 213.153C978.563 211.979 980.038 215.467 981.498 218.967C983.028 222.643 987.451 225.671 987.451 225.671C982.109 228.657 975.676 224.387 973.446 225.093C971.216 225.798 970.429 229.307 970.265 230.432C970.099 231.557 969.839 232.495 967.036 231.488C964.233 230.481 965.77 235.463 966.218 236.405C966.206 236.411 966.596 238.944 964.991 239.977Z" fill="#9E332E"></path><path d="M928.663 460.065H920.121C918.331 460.065 916.344 458.249 915.847 454.922C915.348 451.596 911.666 449.783 910.871 447.061C910.076 444.339 914.154 440.503 914.154 440.503L914.837 439.615L915.545 438.69L922.311 440.304C922.311 440.304 922.478 441.935 922.582 444.015C922.655 445.516 922.693 447.252 922.608 448.773C922.409 452.403 923.612 456.31 926.794 457.019C929.976 457.728 928.663 460.065 928.663 460.065Z" fill="#060632"></path><path d="M988.107 460.147H965.474C965.308 460.119 965.146 460.071 964.992 460.003C963.481 459.224 963.953 453.266 964.124 451.427C964.158 451.085 964.184 450.885 964.184 450.885C964.184 450.885 972.145 444.332 973.238 449.35C973.276 449.506 973.313 449.659 973.356 449.809C974.739 454.507 980.914 456.639 984.483 457.235C987.219 457.697 987.928 459.331 988.107 460.147Z" fill="#060632"></path><path d="M983.561 329.252C983.561 329.252 982.352 344.333 980.932 362.46C979 387.089 976.677 417.339 976.449 423.069C976.053 433.021 974.459 448.938 974.459 448.938C974.459 448.938 970.678 452.719 963.115 451.125C963.115 451.125 956.375 428.402 954.437 404.36C954.408 403.967 954.376 403.57 954.347 403.174C952.557 378.698 949.771 327.161 949.771 327.161L983.561 329.252Z" fill="#ED6966"></path><path d="M983.56 329.252C983.56 329.252 982.351 344.333 980.93 362.46L954.45 404.36C954.421 403.967 954.39 403.57 954.361 403.174C952.571 378.698 949.785 327.161 949.785 327.161L983.56 329.252Z" fill="#E75755"></path><path d="M978.028 331.042C978.028 331.042 956.238 385.663 941.909 411.331C927.58 436.999 923.108 444.163 923.108 444.163C923.108 444.163 914.899 440.88 914.142 438.641C914.142 438.641 919.62 389.085 929.214 377.006C934.635 370.18 941.004 349.696 941.302 342.531C941.6 335.367 943.243 321.191 943.243 321.191L978.028 331.042Z" fill="#ED6966"></path><path d="M928.14 321.947C928.14 321.947 927.562 328.766 927.162 329.813C926.764 330.861 923.981 334.109 923.691 334.063C923.402 334.017 923.18 333.774 923.342 333.1C923.504 332.425 924.455 330.395 924.155 330.447C923.853 330.499 920.684 336.253 919.443 335.928C918.202 335.604 916.961 331.518 917.707 328.628C918.454 325.738 923.527 321.203 923.72 320.738C925.346 316.792 928.14 321.947 928.14 321.947Z" fill="#EA8888"></path><path d="M925.803 323.676C928.215 324.451 928.601 324.274 928.601 324.274C928.601 324.274 940.338 302.905 941.53 300.947C942.722 298.989 966.451 276.984 966.451 276.984L960.35 254.239C960.35 254.239 933.359 289.204 930.443 294.21C925.627 302.5 922.804 321.749 922.804 321.749C923.622 322.638 924.655 323.302 925.803 323.676Z" fill="#060632"></path><path d="M988.146 285.912C988.062 290.582 987.789 295.833 987.425 301.166L987.356 302.115C987.122 305.418 986.87 308.73 986.578 311.95C986.462 313.245 986.339 314.523 986.208 315.782L986.187 315.949C986.187 316.421 986.121 316.933 986.069 317.395C984.877 329.489 983.631 339.045 983.399 339.19C983.129 339.38 982.799 339.465 982.471 339.428C979.289 339.028 969.833 339.748 962.088 338.063C955.551 336.685 949.919 334.07 943.955 330.541C943.163 330.073 941.352 328.835 941.505 327.907C941.649 326.888 941.916 325.419 942.254 323.568C943.431 317.135 945.459 306.069 946.15 293.117C946.287 290.705 946.48 288.326 946.729 285.981C947.327 280.231 948.386 274.537 949.896 268.956C952.552 259.39 956.456 252.067 961.353 249.201C961.993 248.842 965.437 251.034 968.584 253.062C971.25 254.771 974.418 255.522 977.568 255.191L980.2 258.101C983.382 261.806 986.78 266.737 987.72 273.748C987.789 274.267 987.85 274.816 987.899 275.403C988.162 278.9 988.244 282.407 988.146 285.912Z" fill="#120E59"></path><path d="M988.147 285.912C988.062 290.584 987.79 295.834 987.426 301.167L987.357 302.116C969.242 290.774 966.45 270.024 966.45 270.024C975.362 270.415 982.443 272.463 987.9 275.395C988.163 278.894 988.245 282.405 988.147 285.912Z" fill="#060632"></path><path d="M1044.91 266.859C1043.97 264.331 1042.52 264.496 1042.52 264.496C1042.52 264.496 1015.59 271.209 1013.16 271.499C1010.75 271.788 984.16 261.115 984.16 261.115C984.16 261.115 973.692 256.417 968.79 260.706C964.532 264.436 964.338 269.156 965.319 273.118C965.908 275.427 967.179 277.505 968.967 279.08C970.753 280.655 972.974 281.656 975.338 281.951C986.184 283.332 1007.83 285.932 1012.36 285.301C1022.45 283.895 1045.33 270.689 1045.33 270.689C1045.49 269.396 1045.34 268.086 1044.91 266.859Z" fill="#120E59"></path><path d="M1310.52 316.233C1310.52 316.233 1314.27 319.704 1313.54 322.165C1312.8 324.627 1309.43 326.272 1308.97 329.286C1308.51 332.301 1306.69 333.94 1305.05 333.94H1297.21C1297.21 333.94 1296 331.82 1298.92 331.181C1301.85 330.542 1302.95 327.004 1302.77 323.715C1302.58 320.427 1303.06 316.051 1303.06 316.051L1309.26 314.59L1310.52 316.233Z" fill="#0B0754"></path><path d="M1263.89 333.53C1263.5 333.721 1262.16 333.851 1260.33 333.941H1242.63C1242.69 333.414 1243.1 331.535 1245.99 331.069C1249.26 330.537 1254.94 328.633 1256.2 324.448C1256.24 324.314 1256.28 324.176 1256.31 324.037C1257.31 319.565 1264.62 325.405 1264.62 325.405C1264.62 325.405 1264.64 325.585 1264.67 325.891C1264.84 327.534 1265.27 332.839 1263.89 333.53Z" fill="#0B0754"></path><path d="M1246.86 213.903C1246.86 213.903 1247.97 227.737 1249.27 244.371C1251.04 266.964 1253.17 294.72 1253.38 299.975C1253.75 309.107 1255.21 323.711 1255.21 323.711C1255.21 323.711 1258.68 327.182 1265.63 325.718C1265.63 325.718 1271.8 304.869 1273.57 282.812C1273.6 282.45 1273.62 282.086 1273.65 281.722C1275.29 259.268 1277.86 211.985 1277.86 211.985L1246.86 213.903Z" fill="#6D89CF"></path><path d="M1246.86 213.903C1246.86 213.903 1247.97 227.737 1249.27 244.371L1273.57 282.812C1273.59 282.45 1273.62 282.086 1273.65 281.722C1275.29 259.268 1277.85 211.985 1277.85 211.985L1246.86 213.903Z" fill="#3662C1"></path><path d="M1251.92 215.545C1251.92 215.545 1271.91 265.657 1285.06 289.204C1298.2 312.752 1302.31 319.328 1302.31 319.328C1302.31 319.328 1309.82 316.318 1310.52 314.261C1310.52 314.261 1305.5 268.798 1296.69 257.717C1291.72 251.452 1285.87 232.66 1285.6 226.088C1285.33 219.516 1283.82 206.509 1283.82 206.509L1251.92 215.545Z" fill="#6D89CF"></path><path d="M1190.26 188.365C1190.26 188.365 1184.85 187.127 1183.93 187.188C1183.02 187.248 1179.82 188.584 1179.78 188.845C1179.74 189.105 1179.89 189.314 1180.44 189.351C1180.99 189.389 1182.82 189.154 1182.7 189.374C1182.59 189.594 1177.35 190.624 1177.29 191.688C1177.23 192.752 1180.1 194.696 1182.53 194.826C1184.95 194.956 1189.7 192.145 1190.11 192.11C1193.58 191.795 1190.26 188.365 1190.26 188.365Z" fill="#FC9290"></path><path d="M1187.94 189.741C1187.17 187.265 1187.35 186.871 1187.35 186.871C1187.35 186.871 1209.33 174.986 1211.34 173.78C1213.35 172.574 1236.07 148.402 1236.07 148.402L1259.33 154.806C1259.33 154.806 1223.33 182.232 1218.18 185.177C1209.65 190.059 1189.9 192.821 1189.9 192.821C1189 191.979 1188.32 190.919 1187.94 189.741Z" fill="#E75755"></path><path d="M1243.12 136.654C1243.12 136.654 1234.96 151.003 1226.99 152.878C1226.99 152.878 1227.32 148.059 1229.27 144.758C1228.46 143.821 1227.77 142.959 1227.16 142.19C1226.11 140.862 1225.12 139.477 1224.21 138.045L1226.92 130.77L1228.75 125.833C1229.57 127.309 1230.53 128.695 1231.63 129.969C1236.84 135.973 1243.12 136.654 1243.12 136.654Z" fill="#FC9290"></path><path d="M1231.62 129.969C1231.62 129.969 1232.59 137.159 1227.16 142.19C1226.11 140.861 1225.12 139.477 1224.21 138.045L1226.92 130.77C1229.81 129.885 1231.62 129.969 1231.62 129.969Z" fill="#EA8888"></path><path d="M1222.06 139.103C1222.06 139.103 1234.24 134.354 1231.17 126.811C1228.09 119.267 1227.59 113.571 1219.69 116.288C1211.77 119.004 1211.44 122.492 1211.86 125.254C1212.27 128.017 1218.81 140.145 1222.06 139.103Z" fill="#FC9290"></path><path d="M1285.01 210.295C1280.09 217.364 1243.34 226.808 1243.77 221.914C1244.07 218.705 1244.07 215.475 1243.77 212.265C1243.68 211.215 1243.55 210.107 1243.38 208.93C1242.45 202.503 1240.22 194.237 1235.28 184.668C1234.91 183.953 1234.52 183.23 1234.12 182.499C1232.11 178.831 1230.4 175.001 1229.02 171.047C1226.48 163.689 1225.45 156.649 1226.73 152.044C1226.73 152.024 1226.75 152.004 1226.75 151.981C1234.44 148.429 1237.42 134.65 1237.42 134.65C1237.42 134.65 1263.63 139.356 1278.32 174.296C1278.3 174.296 1289.3 204.143 1285.01 210.295Z" fill="#ED6966"></path><path d="M1243.77 212.265C1243.68 211.215 1243.55 210.107 1243.38 208.93C1242.45 202.502 1240.22 194.236 1235.28 184.667C1236.13 179.519 1237.3 175.238 1238.58 173.312C1243.82 165.476 1246.86 164.253 1246.86 164.253C1246.86 164.253 1254.7 197.313 1243.77 212.265Z" fill="#E75755"></path><path d="M1202.44 204.397C1202.44 204.397 1195.2 204.779 1194.08 205.184C1192.95 205.589 1189.42 208.406 1189.44 208.748C1189.47 209.089 1189.73 209.297 1190.45 209.147C1191.17 208.996 1193.35 208.053 1193.3 208.371C1193.24 208.69 1187.03 211.842 1187.33 213.19C1187.63 214.539 1191.93 215.964 1195.02 215.264C1198.1 214.565 1203.07 209.332 1203.57 209.141C1207.83 207.524 1202.44 204.397 1202.44 204.397Z" fill="#FC9290"></path><path d="M1201.07 207.148C1199.63 204.803 1200.66 203.732 1200.66 203.732C1200.66 203.732 1223.07 186.192 1224.82 184.419C1226.58 182.646 1234.71 154.436 1234.71 154.436C1234.71 154.436 1237.51 143.017 1244.07 141.758C1249.76 140.666 1253.7 143.494 1256.28 146.789C1257.77 148.719 1258.65 151.055 1258.79 153.492C1258.94 155.928 1258.35 158.353 1257.1 160.449C1251.37 170.087 1239.84 189.215 1236.47 192.483C1228.98 199.757 1203.88 209.922 1203.88 209.922C1202.75 209.226 1201.78 208.277 1201.07 207.148Z" fill="#ED6966"></path><path d="M1232.92 112.797C1233 112.629 1233.25 112.447 1233.85 112.261C1233.45 112.146 1233.03 112.131 1232.63 112.218C1232.29 111.383 1231.45 109.959 1229.9 109.95C1230.17 110.034 1230.43 110.179 1230.64 110.375C1230.85 110.57 1231.01 110.811 1231.12 111.078C1228.97 109.722 1225.01 109.329 1215.12 112.623C1202.09 116.961 1208.6 124.534 1210.58 125.141C1212.55 125.749 1216.19 121.852 1219.47 121.321C1222.73 120.789 1224.5 125.346 1225.75 125.726C1226.99 126.105 1226.29 125.066 1227.59 124.028C1228.9 122.989 1229.66 125.434 1229.63 127.149C1229.59 128.864 1232.14 130.49 1232.14 130.49L1233.63 127.75C1235.13 125.011 1234.72 115.067 1233.29 113.288L1232.92 112.797Z" fill="#0B0754"></path><path d="M1447 485.635H711.001C710.448 485.635 710 486.083 710 486.636V487.266C710 487.819 710.448 488.267 711.001 488.267H1447C1447.55 488.267 1448 487.819 1448 487.266V486.636C1448 486.083 1447.55 485.635 1447 485.635Z" fill="#010117"></path><path d="M1026.85 459.78V474.535L991.935 459.78H1026.85Z" fill="#BED2FA"></path><path d="M1325.73 333.94H1210.23V485.634H1325.73V333.94Z" fill="#6D89CF"></path><path d="M1290.11 333.94H1174.62V485.634H1290.11V333.94Z" fill="#3662C1"></path><path d="M1325.73 333.94V356.626L1290.12 333.94H1325.73Z" fill="#BED2FA"></path></g><defs><clipPath id="clip0"><rect width="1536" height="588" fill="white"></rect></clipPath></defs></svg>