<svg width="48" height="48" viewBox="0 0 48 48" fill="none" xmlns="http://www.w3.org/2000/svg">
<path d="M14 27.65C14.4667 27.65 14.8583 27.4917 15.175 27.175C15.4917 26.8583 15.65 26.4667 15.65 26C15.65 25.5333 15.4917 25.1417 15.175 24.825C14.8583 24.5083 14.4667 24.35 14 24.35C13.5333 24.35 13.1417 24.5083 12.825 24.825C12.5083 25.1417 12.35 25.5333 12.35 26C12.35 26.4667 12.5083 26.8583 12.825 27.175C13.1417 27.4917 13.5333 27.65 14 27.65V27.65ZM14 19.65C14.4667 19.65 14.8583 19.4917 15.175 19.175C15.4917 18.8583 15.65 18.4667 15.65 18C15.65 17.5333 15.4917 17.1417 15.175 16.825C14.8583 16.5083 14.4667 16.35 14 16.35C13.5333 16.35 13.1417 16.5083 12.825 16.825C12.5083 17.1417 12.35 17.5333 12.35 18C12.35 18.4667 12.5083 18.8583 12.825 19.175C13.1417 19.4917 13.5333 19.65 14 19.65V19.65ZM18 27.5H36V24.5H18V27.5ZM18 19.5H36V16.5H18V19.5ZM16.5 42V38H7C6.2 38 5.5 37.7 4.9 37.1C4.3 36.5 4 35.8 4 35V9C4 8.2 4.3 7.5 4.9 6.9C5.5 6.3 6.2 6 7 6H41C41.8 6 42.5 6.3 43.1 6.9C43.7 7.5 44 8.2 44 9V35C44 35.8 43.7 36.5 43.1 37.1C42.5 37.7 41.8 38 41 38H31.5V42H16.5Z" fill="#1CD3C6"/>
</svg>
